HIERARCHY
ROOT root
{
	OFFSET	0	260	24
	CHANNELS 6  Xposition Yposition Zposition Xrotation Yrotation Zrotation
	JOINT spine_3
	{
		OFFSET	0	81.6	10.2
		CHANNELS 3  Xrotation Yrotation Zrotation
		JOINT spine_4
		{
			OFFSET	0	110.4	14.6
			CHANNELS 3  Xrotation Yrotation Zrotation
			JOINT neck_1
			{
				OFFSET	0	71.8	-50.3
				CHANNELS 3  Xrotation Yrotation Zrotation
				JOINT neck_2
				{
					OFFSET	0	86.2	-25.8
					CHANNELS 3  Xrotation Yrotation Zrotation
					JOINT head_ee
					{
						OFFSET	0	179.8	-8.7
						CHANNELS 3  Xrotation Yrotation Zrotation
						End Site
						{
							OFFSET	1	0	0
						}
					}
				}
			}
			JOINT left_clavicle
			{
				OFFSET	-43.2	22.4	-70.8
				CHANNELS 3  Xrotation Yrotation Zrotation
				JOINT left_shoulder
				{
					OFFSET	-93.9	-5.79999	48.7
					CHANNELS 3  Xrotation Yrotation Zrotation
					JOINT left_elbow
					{
						OFFSET	-291.4	-30.8	15.2
						CHANNELS 3  Xrotation Yrotation Zrotation
						JOINT left_lowarm_twist
						{
							OFFSET	-110.7	-3.89999	13.6
							CHANNELS 3  Xrotation Yrotation Zrotation
							JOINT left_hand
							{
								OFFSET	-110.7	-3.89999	13.6
								CHANNELS 3  Xrotation Yrotation Zrotation
								JOINT left_ee
								{
									OFFSET	-80.8	-5.10001	12.1
									CHANNELS 3  Xrotation Yrotation Zrotation
									End Site
									{
										OFFSET	1	0	0
									}
								}
							}
						}
					}
				}
			}
			JOINT right_clavicle
			{
				OFFSET	43.2	22.4	-70.8
				CHANNELS 3  Xrotation Yrotation Zrotation
				JOINT right_shoulder
				{
					OFFSET	93.9	-5.79999	48.7
					CHANNELS 3  Xrotation Yrotation Zrotation
					JOINT right_elbow
					{
						OFFSET	291.4	-30.8	15.2
						CHANNELS 3  Xrotation Yrotation Zrotation
						JOINT right_lowarm_twist
						{
							OFFSET	110.7	-3.89999	13.6
							CHANNELS 3  Xrotation Yrotation Zrotation
							JOINT right_hand
							{
								OFFSET	110.7	-3.89999	13.6
								CHANNELS 3  Xrotation Yrotation Zrotation
								JOINT right_ee
								{
									OFFSET	80.8	-5.10001	12.1
									CHANNELS 3  Xrotation Yrotation Zrotation
									End Site
									{
										OFFSET	1	0	0
									}
								}
							}
						}
					}
				}
			}
		}
	}
	JOINT spine_2
	{
		OFFSET	0	-124.9	-9.1
		CHANNELS 3  Xrotation Yrotation Zrotation
		JOINT spine_1
		{
			OFFSET	0	-112	10
			CHANNELS 3  Xrotation Yrotation Zrotation
			JOINT left_hip
			{
				OFFSET	-82.8	-137.5	0.300001
				CHANNELS 3  Xrotation Yrotation Zrotation
				JOINT left_knee
				{
					OFFSET	-28.2	-396.7	2.2
					CHANNELS 3  Xrotation Yrotation Zrotation
					JOINT left_ankle
					{
						OFFSET	-11.7	-411.3	35.4
						CHANNELS 3  Xrotation Yrotation Zrotation
						JOINT left_toes
						{
							OFFSET	0	-60	-88.6
							CHANNELS 3  Xrotation Yrotation Zrotation
							JOINT left_foot_ee
							{
								OFFSET	-22.5	-16.5	-42.2
								CHANNELS 3  Xrotation Yrotation Zrotation
								End Site
								{
									OFFSET	1	0	0
								}
							}
						}
					}
				}
			}
			JOINT right_hip
			{
				OFFSET	82.8	-137.5	0.300001
				CHANNELS 3  Xrotation Yrotation Zrotation
				JOINT right_knee
				{
					OFFSET	28.2	-396.7	2.2
					CHANNELS 3  Xrotation Yrotation Zrotation
					JOINT right_ankle
					{
						OFFSET	11.7	-411.3	35.4
						CHANNELS 3  Xrotation Yrotation Zrotation
						JOINT right_toes
						{
							OFFSET	0	-60	-88.6
							CHANNELS 3  Xrotation Yrotation Zrotation
							JOINT right_foot_ee
							{
								OFFSET	22.5	-16.5	-42.2
								CHANNELS 3  Xrotation Yrotation Zrotation
								End Site
								{
									OFFSET	1	0	0
								}
							}
						}
					}
				}
			}
		}
	}
}
MOTION
Frames: 5
Frame Time: 0.02
3614.91 982.124 -802.448 -8.1842 45.47 6.86125 4.21312 0.336375 -1.83255 4.20843 0.0427883 -1.86266 -15.4834 -6.6905 0.0269829 -15.6362 -12.8256 -2.26713 -0.0 0.0 -0.0 3.20997 19.8849 7.05383 -23.6029 -32.9832 52.1117 0.505553 -14.06 0.0623431 -24.3252 -1.45842 2.7235 -1.61857 14.3266 -4.21191 -0.0 0.0 -0.0 5.85998 10.3931 -10.9651 -39.9867 55.4602 -37.3166 0.372154 10.4456 -0.0340182 -69.6881 6.50622 -5.29935 0.283717 -3.24439 -3.23833 0.0 0.0 0.0 -4.21215 -0.217136 1.85046 -4.21405 -0.0989666 1.86053 34.8784 -24.3875 -6.92053 -37.3724 -0.308118 5.6269 26.5613 -18.3723 -3.86622 -12.2175 0.0 0.0 -0.0 0.0 -0.0 11.1569 -5.13429 -4.17072 4.84334 0.22953 0.707417 18.2002 -23.5686 2.60963 -0.988518 0.0 0.0 0.0 0.0 0.0 
3612.62 982.137 -807.889 -7.95199 46.4676 7.05069 4.27974 0.21433 -1.79527 4.27525 -0.0718411 -1.80659 -14.5386 -3.15493 0.577948 -14.5705 -6.37437 -0.4737 -0.0 0.0 -0.0 2.43081 19.9756 5.90381 -23.1786 -32.4801 54.4877 0.459434 -12.8218 0.0516224 -23.026 -1.35215 2.59536 -1.31227 12.8324 -2.98049 -0.0 0.0 -0.0 7.71798 5.90747 -15.0123 -45.2576 52.8414 -29.9068 0.499994 13.9114 -0.0609995 -73.9954 7.0565 -5.3202 -0.32721 -10.5492 -2.27244 0.0 0.0 0.0 -4.2788 -0.101959 1.80514 -4.28061 0.0130938 1.80797 35.493 -23.1508 -7.24091 -38.028 -0.346099 5.72023 21.9224 -16.2083 -3.2249 -9.6018 0.0 0.0 -0.0 0.0 -0.0 11.7942 -11.6298 -5.3057 2.18219 0.0959935 0.321071 23.3338 -25.3071 3.30518 -0.986605 0.0 0.0 0.0 0.0 0.0 
3613.41 983.093 -809.522 -8.11108 47.5774 7.5131 4.06965 0.126014 -1.77416 4.06529 -0.155717 -1.7718 -14.7885 -2.1644 0.137863 -14.8032 -4.21949 -0.578059 -0.0 0.0 -0.0 2.12644 19.8073 5.44599 -21.0322 -32.325 57.2696 0.403612 -11.3067 0.039954 -21.5292 -1.23338 2.44482 -1.15846 12.5209 -2.15152 -0.0 0.0 -0.0 9.19568 6.31627 -18.1196 -47.8211 51.3248 -26.4708 0.485746 13.5298 -0.0576201 -75.972 7.30901 -5.31582 -0.837026 -16.2941 -1.50027 0.0 0.0 0.0 -4.06873 -0.00208556 1.77862 -4.07048 0.111079 1.77516 35.6167 -23.8447 -7.3071 -39.1528 -0.413752 5.87933 20.3205 -15.2249 -2.99378 -7.26339 0.0 0.0 -0.0 0.0 -0.0 10.6054 -13.5412 -6.32109 2.41169 0.1068 0.354625 25.6602 -24.1055 3.57164 -1.97299 0.0 0.0 0.0 0.0 0.0 
3613.74 983.098 -814.344 -8.00748 48.9252 7.44662 4.10594 0.0806718 -1.818 4.10139 -0.207412 -1.80794 -14.8586 -0.953366 0.537405 -14.8617 -2.14318 0.195156 -0.0 0.0 -0.0 2.16879 19.76 5.50617 -21.3228 -31.6795 57.673 0.396022 -11.0994 0.0384795 -21.2132 -1.20881 2.41265 -1.0152 12.2029 -1.38862 -0.0 0.0 -0.0 10.2121 5.41462 -20.2829 -49.382 50.2369 -24.3696 0.534095 14.8197 -0.0694605 -77.3103 7.47973 -5.30787 -1.00596 -19.8266 -1.99874 0.0 0.0 0.0 -4.10497 0.0439001 1.81926 -4.1068 0.159556 1.81279 36.1035 -24.2761 -7.5273 -40.1362 -0.475454 6.01734 17.9865 -18.5089 -2.75152 -5.91235 0.0 0.0 -0.0 0.0 -0.0 9.9813 -14.8811 -6.46305 1.44596 0.0622383 0.21315 31.2621 -22.4663 4.19238 -1.52756 0.0 0.0 0.0 0.0 0.0 
3609.27 983.313 -816.347 -8.43907 49.2218 7.84395 4.48344 0.0554459 -1.75375 4.47922 -0.222179 -1.7405 -14.762 3.18732 -0.430702 -14.7951 6.34946 0.636108 -0.0 0.0 -0.0 2.0987 17.2978 5.26491 -22.1087 -31.2519 59.7784 0.278327 -7.85035 0.0190974 -19.3506 -1.06765 2.22034 -0.548234 11.9492 1.45352 -0.0 0.0 -0.0 10.7675 4.5786 -21.4583 -50.9008 49.19 -22.232 0.657279 18.0352 -0.104311 -78.5559 7.63835 -5.29686 -1.00329 -22.4751 -3.15148 0.0 0.0 0.0 -4.48254 0.0415482 1.75413 -4.48424 0.153067 1.74794 35.5392 -23.2186 -7.3275 -35.6117 -0.211443 5.37423 17.2306 -9.99826 -2.49493 -4.61284 0.0 0.0 -0.0 0.0 -0.0 9.53332 -19.5695 -7.23208 5.05323 0.240826 0.737625 24.4238 -25.2099 3.44061 -2.92883 0.0 0.0 0.0 0.0 0.0 
